<mxfile host="app.diagrams.net" modified="2024-04-17T02:37:01.984Z" agent="Mozilla/5.0 (Windows NT 10.0; Win64; x64) AppleWebKit/537.36 (KHTML, like Gecko) Chrome/123.0.0.0 Safari/537.36" etag="R6JD18A4jPYTfrn76EOA" version="24.2.5" type="github">
  <diagram id="C5RBs43oDa-KdzZeNtuy" name="Page-1">
    <mxGraphModel dx="2150" dy="883" grid="1" gridSize="10" guides="1" tooltips="1" connect="1" arrows="1" fold="1" page="1" pageScale="1" pageWidth="827" pageHeight="1169" math="0" shadow="0">
      <root>
        <mxCell id="WIyWlLk6GJQsqaUBKTNV-0" />
        <mxCell id="WIyWlLk6GJQsqaUBKTNV-1" parent="WIyWlLk6GJQsqaUBKTNV-0" />
        <mxCell id="pQPHmSbJhxu7xn3oYJk7-114" style="edgeStyle=orthogonalEdgeStyle;rounded=0;orthogonalLoop=1;jettySize=auto;html=1;fontSize=14;entryX=0.5;entryY=0;entryDx=0;entryDy=0;entryPerimeter=0;exitX=1;exitY=0.5;exitDx=0;exitDy=0;exitPerimeter=0;" edge="1" parent="WIyWlLk6GJQsqaUBKTNV-1" source="pQPHmSbJhxu7xn3oYJk7-181" target="pQPHmSbJhxu7xn3oYJk7-179">
          <mxGeometry relative="1" as="geometry">
            <mxPoint x="1288.9999999999995" y="1860" as="targetPoint" />
          </mxGeometry>
        </mxCell>
        <mxCell id="pQPHmSbJhxu7xn3oYJk7-115" value="否" style="edgeLabel;html=1;align=center;verticalAlign=middle;resizable=0;points=[];fontSize=14;" vertex="1" connectable="0" parent="pQPHmSbJhxu7xn3oYJk7-114">
          <mxGeometry x="-0.8147" relative="1" as="geometry">
            <mxPoint as="offset" />
          </mxGeometry>
        </mxCell>
        <mxCell id="pQPHmSbJhxu7xn3oYJk7-116" value="Subscribe服务" style="swimlane;" vertex="1" parent="WIyWlLk6GJQsqaUBKTNV-1">
          <mxGeometry x="430" y="140" width="2190" height="2610" as="geometry" />
        </mxCell>
        <UserObject label="&lt;div style=&quot;font-size: 1px&quot;&gt;&lt;p style=&quot;text-align: center ; margin-left: 0 ; margin-right: 0 ; margin-top: 0px ; margin-bottom: 0px ; text-indent: 0 ; vertical-align: middle ; direction: ltr&quot;&gt;&lt;span style=&quot;font-size: 12px ; letter-spacing: 0px&quot;&gt;查询流水信息&lt;/span&gt;&lt;br&gt;&lt;/p&gt;&lt;p style=&quot;text-align: center ; margin-left: 0 ; margin-right: 0 ; margin-top: 0px ; margin-bottom: 0px ; text-indent: 0 ; vertical-align: middle ; direction: ltr&quot;&gt;&lt;span style=&quot;font-size: 12px ; letter-spacing: 0px&quot;&gt;（从TZJJZLS表中获取到CLZT为0、打款卡号和收款卡号与&lt;/span&gt;&lt;span style=&quot;font-size: 12px&quot;&gt;TMP_JYLS_TMP表一致，流水时间在开始时间与进账截止时间区间）&lt;/span&gt;&lt;/p&gt;&lt;/div&gt;" tags="Background" id="pQPHmSbJhxu7xn3oYJk7-117">
          <mxCell style="verticalAlign=middle;align=center;overflow=width;vsdxID=10;fillColor=#FFFFFF;gradientColor=none;shape=stencil(nZBRDoQgDERP03+WHsHFe5iISyOCQdT19kIaIxq//Jtp3zTpAFaTaUYNUkwx+F6v1EYD+AUpyRkdKCYFqACrzgf9C352LfuxyWRWg1/yhT/nRE5IsZWuZtCSK8CPeI0e/hF+jV7AJM4PO7KWCyr390bSiNtEtQM=);strokeColor=#000000;strokeWidth=2;spacingTop=-3;spacingBottom=-3;spacingLeft=-3;spacingRight=-3;points=[];labelBackgroundColor=none;rounded=0;html=1;whiteSpace=wrap;" vertex="1" parent="pQPHmSbJhxu7xn3oYJk7-116">
            <mxGeometry x="180" y="455" width="237" height="71" as="geometry" />
          </mxCell>
        </UserObject>
        <UserObject label="&lt;div style=&quot;font-size: 1px&quot;&gt;&lt;p style=&quot;text-align: center ; margin-left: 0 ; margin-right: 0 ; margin-top: 0px ; margin-bottom: 0px ; text-indent: 0 ; vertical-align: middle ; direction: ltr&quot;&gt;&lt;font style=&quot;font-size: 12px ; color: #000000 ; direction: ltr ; letter-spacing: 0px ; line-height: 120% ; opacity: 1&quot;&gt;插入进账流水临时表&lt;br&gt;&lt;/font&gt;&lt;font style=&quot;font-size: 12px ; color: #000000 ; direction: ltr ; letter-spacing: 0px ; line-height: 120% ; opacity: 1&quot;&gt;（查出TGPYXLB中CZLX为1，非钱包进账的数据插入到&lt;/font&gt;&lt;span style=&quot;font-size: 12px&quot;&gt;TMP_JYLS_TMP表中&lt;/span&gt;&lt;span style=&quot;font-size: 12px ; letter-spacing: 0px&quot;&gt;）&lt;/span&gt;&lt;/p&gt;&lt;/div&gt;" tags="Background" id="pQPHmSbJhxu7xn3oYJk7-118">
          <mxCell style="verticalAlign=middle;align=center;overflow=width;vsdxID=10;fillColor=#FFFFFF;gradientColor=none;shape=stencil(nZBRDoQgDERP03+WHsHFe5iISyOCQdT19kIaIxq//Jtp3zTpAFaTaUYNUkwx+F6v1EYD+AUpyRkdKCYFqACrzgf9C352LfuxyWRWg1/yhT/nRE5IsZWuZtCSK8CPeI0e/hF+jV7AJM4PO7KWCyr390bSiNtEtQM=);strokeColor=#000000;strokeWidth=2;spacingTop=-3;spacingBottom=-3;spacingLeft=-3;spacingRight=-3;points=[];labelBackgroundColor=none;rounded=0;html=1;whiteSpace=wrap;" vertex="1" parent="pQPHmSbJhxu7xn3oYJk7-116">
            <mxGeometry x="180" y="330" width="237" height="71" as="geometry" />
          </mxCell>
        </UserObject>
        <mxCell id="pQPHmSbJhxu7xn3oYJk7-119" value="流水匹配标识置为1&lt;br&gt;&lt;div style=&quot;background-color: rgb(255 , 255 , 255) ; color: rgb(8 , 8 , 8) ; font-family: &amp;#34;jetbrains mono&amp;#34; , monospace ; font-size: 10.5pt&quot;&gt;&lt;span style=&quot;color: #000000&quot;&gt;matchedFlag&lt;/span&gt;&lt;/div&gt;" style="rounded=0;whiteSpace=wrap;html=1;" vertex="1" parent="pQPHmSbJhxu7xn3oYJk7-116">
          <mxGeometry x="1290" y="1400" width="220" height="60" as="geometry" />
        </mxCell>
        <mxCell id="pQPHmSbJhxu7xn3oYJk7-120" style="edgeStyle=orthogonalEdgeStyle;rounded=0;orthogonalLoop=1;jettySize=auto;html=1;entryX=0.5;entryY=0;entryDx=0;entryDy=0;" edge="1" parent="pQPHmSbJhxu7xn3oYJk7-116" source="pQPHmSbJhxu7xn3oYJk7-121" target="pQPHmSbJhxu7xn3oYJk7-122">
          <mxGeometry relative="1" as="geometry" />
        </mxCell>
        <mxCell id="pQPHmSbJhxu7xn3oYJk7-121" value="&lt;span style=&quot;font-size: 14px ; text-align: left&quot;&gt;流水匹配标识为0&lt;br&gt;&lt;/span&gt;&lt;div style=&quot;background-color: rgb(255 , 255 , 255) ; color: rgb(8 , 8 , 8) ; font-family: &amp;#34;jetbrains mono&amp;#34; , monospace ; font-size: 10.5pt&quot;&gt;&lt;span style=&quot;color: #000000&quot;&gt;matchedFlag&lt;/span&gt;&lt;/div&gt;" style="rounded=0;whiteSpace=wrap;html=1;" vertex="1" parent="pQPHmSbJhxu7xn3oYJk7-116">
          <mxGeometry x="1290" y="654.5" width="220" height="60" as="geometry" />
        </mxCell>
        <mxCell id="pQPHmSbJhxu7xn3oYJk7-122" value="&lt;span style=&quot;background-color: rgb(255 , 255 , 255)&quot;&gt;&lt;span style=&quot;font-size: 14px ; text-align: left&quot;&gt;获取未完全进账合同列表&lt;br&gt;（HTZT为3，&lt;/span&gt;&lt;span style=&quot;color: rgb(8 , 8 , 8) ; font-family: &amp;#34;jetbrains mono&amp;#34; , monospace ; font-size: 10.5pt&quot;&gt;DKZJE&amp;gt;sum(&lt;/span&gt;&lt;span style=&quot;color: rgb(8 , 8 , 8) ; font-family: &amp;#34;jetbrains mono&amp;#34; , monospace ; font-size: 10.5pt&quot;&gt;JZJE&lt;/span&gt;&lt;span style=&quot;color: rgb(8 , 8 , 8) ; font-family: &amp;#34;jetbrains mono&amp;#34; , monospace ; font-size: 10.5pt&quot;&gt;)的合同信息）&lt;/span&gt;&lt;/span&gt;" style="rounded=0;whiteSpace=wrap;html=1;" vertex="1" parent="pQPHmSbJhxu7xn3oYJk7-116">
          <mxGeometry x="1291" y="790" width="220" height="60" as="geometry" />
        </mxCell>
        <mxCell id="pQPHmSbJhxu7xn3oYJk7-123" value="&lt;span style=&quot;background-color: rgb(255 , 255 , 255)&quot;&gt;&lt;span style=&quot;font-size: 14px ; text-align: left&quot;&gt;获取未完全进账合同列表&lt;br&gt;&lt;/span&gt;&lt;span style=&quot;font-size: 14px ; text-align: left&quot;&gt;（HTZT为3，&lt;/span&gt;&lt;span style=&quot;color: rgb(8 , 8 , 8) ; font-family: &amp;#34;jetbrains mono&amp;#34; , monospace ; font-size: 10.5pt&quot;&gt;DKZJE&amp;gt;sum(&lt;/span&gt;&lt;span style=&quot;color: rgb(8 , 8 , 8) ; font-family: &amp;#34;jetbrains mono&amp;#34; , monospace ; font-size: 10.5pt&quot;&gt;JZJE&lt;/span&gt;&lt;span style=&quot;color: rgb(8 , 8 , 8) ; font-family: &amp;#34;jetbrains mono&amp;#34; , monospace ; font-size: 10.5pt&quot;&gt;)的合同信息）&lt;/span&gt;&lt;/span&gt;&lt;span style=&quot;font-size: 14px ; text-align: left&quot;&gt;&lt;br&gt;&lt;/span&gt;" style="rounded=0;whiteSpace=wrap;html=1;" vertex="1" parent="pQPHmSbJhxu7xn3oYJk7-116">
          <mxGeometry x="1710" y="1310" width="220" height="60" as="geometry" />
        </mxCell>
        <mxCell id="pQPHmSbJhxu7xn3oYJk7-124" value="流水处理结束" style="rounded=0;whiteSpace=wrap;html=1;" vertex="1" parent="pQPHmSbJhxu7xn3oYJk7-116">
          <mxGeometry x="188.5" y="2430" width="220" height="60" as="geometry" />
        </mxCell>
        <mxCell id="pQPHmSbJhxu7xn3oYJk7-125" value="&lt;div style=&quot;text-align: left;&quot;&gt;&lt;span style=&quot;font-size: 14px;&quot;&gt;待定表流水金额等于&lt;/span&gt;&lt;span style=&quot;font-size: 14px; background-color: initial;&quot;&gt;合同&lt;/span&gt;&lt;/div&gt;&lt;div style=&quot;&quot;&gt;&lt;span style=&quot;font-size: 14px; background-color: initial;&quot;&gt;未匹配的金额&lt;/span&gt;&lt;/div&gt;" style="strokeWidth=2;html=1;shape=mxgraph.flowchart.decision;whiteSpace=wrap;" vertex="1" parent="pQPHmSbJhxu7xn3oYJk7-116">
          <mxGeometry x="1726.5" y="1570" width="187" height="101" as="geometry" />
        </mxCell>
        <mxCell id="pQPHmSbJhxu7xn3oYJk7-126" value="&lt;span style=&quot;font-size: 14px ; text-align: left&quot;&gt;流水打款卡号与收款卡号&lt;/span&gt;&lt;div&gt;&lt;span style=&quot;font-size: 14px ; text-align: left&quot;&gt;有唯一的合同&lt;/span&gt;&lt;/div&gt;" style="strokeWidth=2;html=1;shape=mxgraph.flowchart.decision;whiteSpace=wrap;" vertex="1" parent="WIyWlLk6GJQsqaUBKTNV-1">
          <mxGeometry x="637" y="700" width="183" height="100" as="geometry" />
        </mxCell>
        <mxCell id="pQPHmSbJhxu7xn3oYJk7-127" value="是" style="edgeStyle=orthogonalEdgeStyle;rounded=0;orthogonalLoop=1;jettySize=auto;html=1;exitX=0.5;exitY=1;exitDx=0;exitDy=0;exitPerimeter=0;entryX=0.5;entryY=0;entryDx=0;entryDy=0;" edge="1" parent="WIyWlLk6GJQsqaUBKTNV-1" source="pQPHmSbJhxu7xn3oYJk7-130" target="pQPHmSbJhxu7xn3oYJk7-141">
          <mxGeometry relative="1" as="geometry" />
        </mxCell>
        <mxCell id="pQPHmSbJhxu7xn3oYJk7-128" style="edgeStyle=orthogonalEdgeStyle;rounded=0;orthogonalLoop=1;jettySize=auto;html=1;exitX=1;exitY=0.5;exitDx=0;exitDy=0;exitPerimeter=0;" edge="1" parent="WIyWlLk6GJQsqaUBKTNV-1" source="pQPHmSbJhxu7xn3oYJk7-130" target="pQPHmSbJhxu7xn3oYJk7-135">
          <mxGeometry relative="1" as="geometry" />
        </mxCell>
        <mxCell id="pQPHmSbJhxu7xn3oYJk7-129" value="否" style="edgeLabel;html=1;align=center;verticalAlign=middle;resizable=0;points=[];fontSize=14;" vertex="1" connectable="0" parent="pQPHmSbJhxu7xn3oYJk7-128">
          <mxGeometry x="-0.2021" relative="1" as="geometry">
            <mxPoint as="offset" />
          </mxGeometry>
        </mxCell>
        <mxCell id="pQPHmSbJhxu7xn3oYJk7-130" value="&lt;span style=&quot;font-size: 14px ; text-align: left&quot;&gt;流水打款卡号与收款卡号&lt;/span&gt;&lt;span style=&quot;font-size: 14px ; text-align: left&quot;&gt;&lt;br&gt;有零笔有效合同时&lt;/span&gt;" style="strokeWidth=2;html=1;shape=mxgraph.flowchart.decision;whiteSpace=wrap;" vertex="1" parent="WIyWlLk6GJQsqaUBKTNV-1">
          <mxGeometry x="881" y="774" width="187" height="101" as="geometry" />
        </mxCell>
        <mxCell id="pQPHmSbJhxu7xn3oYJk7-131" style="edgeStyle=orthogonalEdgeStyle;rounded=0;orthogonalLoop=1;jettySize=auto;html=1;exitX=0.5;exitY=1;exitDx=0;exitDy=0;exitPerimeter=0;entryX=0.5;entryY=0;entryDx=0;entryDy=0;" edge="1" parent="WIyWlLk6GJQsqaUBKTNV-1" source="pQPHmSbJhxu7xn3oYJk7-135" target="pQPHmSbJhxu7xn3oYJk7-143">
          <mxGeometry relative="1" as="geometry" />
        </mxCell>
        <mxCell id="pQPHmSbJhxu7xn3oYJk7-132" value="是" style="edgeLabel;html=1;align=center;verticalAlign=middle;resizable=0;points=[];fontSize=14;" vertex="1" connectable="0" parent="pQPHmSbJhxu7xn3oYJk7-131">
          <mxGeometry x="-0.3301" relative="1" as="geometry">
            <mxPoint as="offset" />
          </mxGeometry>
        </mxCell>
        <mxCell id="pQPHmSbJhxu7xn3oYJk7-133" style="edgeStyle=orthogonalEdgeStyle;rounded=0;orthogonalLoop=1;jettySize=auto;html=1;exitX=1;exitY=0.5;exitDx=0;exitDy=0;exitPerimeter=0;entryX=0;entryY=0.5;entryDx=0;entryDy=0;entryPerimeter=0;" edge="1" parent="WIyWlLk6GJQsqaUBKTNV-1" source="pQPHmSbJhxu7xn3oYJk7-135" target="pQPHmSbJhxu7xn3oYJk7-148">
          <mxGeometry relative="1" as="geometry" />
        </mxCell>
        <mxCell id="pQPHmSbJhxu7xn3oYJk7-134" value="否" style="edgeLabel;html=1;align=center;verticalAlign=middle;resizable=0;points=[];fontSize=14;" vertex="1" connectable="0" parent="pQPHmSbJhxu7xn3oYJk7-133">
          <mxGeometry x="-0.3451" y="2" relative="1" as="geometry">
            <mxPoint as="offset" />
          </mxGeometry>
        </mxCell>
        <mxCell id="pQPHmSbJhxu7xn3oYJk7-135" value="&lt;span style=&quot;font-size: 14px ; text-align: left&quot;&gt;流水打款卡号与收款卡号&lt;/span&gt;&lt;span style=&quot;font-size: 14px ; text-align: left&quot;&gt;&lt;br&gt;有一笔有效合同时&lt;/span&gt;" style="strokeWidth=2;html=1;shape=mxgraph.flowchart.decision;whiteSpace=wrap;" vertex="1" parent="WIyWlLk6GJQsqaUBKTNV-1">
          <mxGeometry x="1142" y="774" width="187" height="101" as="geometry" />
        </mxCell>
        <mxCell id="pQPHmSbJhxu7xn3oYJk7-136" style="edgeStyle=orthogonalEdgeStyle;rounded=0;orthogonalLoop=1;jettySize=auto;html=1;exitX=1;exitY=0.5;exitDx=0;exitDy=0;exitPerimeter=0;entryX=0.5;entryY=0;entryDx=0;entryDy=0;entryPerimeter=0;" edge="1" parent="WIyWlLk6GJQsqaUBKTNV-1" source="pQPHmSbJhxu7xn3oYJk7-126" target="pQPHmSbJhxu7xn3oYJk7-130">
          <mxGeometry relative="1" as="geometry" />
        </mxCell>
        <mxCell id="pQPHmSbJhxu7xn3oYJk7-137" value="否" style="edgeLabel;html=1;align=center;verticalAlign=middle;resizable=0;points=[];" vertex="1" connectable="0" parent="pQPHmSbJhxu7xn3oYJk7-136">
          <mxGeometry x="-0.3039" y="-2" relative="1" as="geometry">
            <mxPoint as="offset" />
          </mxGeometry>
        </mxCell>
        <mxCell id="pQPHmSbJhxu7xn3oYJk7-138" style="edgeStyle=orthogonalEdgeStyle;rounded=0;orthogonalLoop=1;jettySize=auto;html=1;fontSize=14;" edge="1" parent="WIyWlLk6GJQsqaUBKTNV-1" source="pQPHmSbJhxu7xn3oYJk7-139" target="pQPHmSbJhxu7xn3oYJk7-193">
          <mxGeometry relative="1" as="geometry" />
        </mxCell>
        <mxCell id="pQPHmSbJhxu7xn3oYJk7-139" value="获取该合同信息" style="rounded=0;whiteSpace=wrap;html=1;" vertex="1" parent="WIyWlLk6GJQsqaUBKTNV-1">
          <mxGeometry x="618.5" y="934" width="220" height="60" as="geometry" />
        </mxCell>
        <mxCell id="pQPHmSbJhxu7xn3oYJk7-140" style="edgeStyle=orthogonalEdgeStyle;rounded=0;orthogonalLoop=1;jettySize=auto;html=1;exitX=0.5;exitY=1;exitDx=0;exitDy=0;entryX=0.5;entryY=0;entryDx=0;entryDy=0;fontSize=14;" edge="1" parent="WIyWlLk6GJQsqaUBKTNV-1" source="pQPHmSbJhxu7xn3oYJk7-141" target="pQPHmSbJhxu7xn3oYJk7-193">
          <mxGeometry relative="1" as="geometry">
            <Array as="points">
              <mxPoint x="975" y="1430" />
              <mxPoint x="729" y="1430" />
            </Array>
          </mxGeometry>
        </mxCell>
        <mxCell id="pQPHmSbJhxu7xn3oYJk7-141" value="按照合同ID倒序获取最后一笔合同&lt;br&gt;（不加合同状态判断条件）" style="rounded=0;whiteSpace=wrap;html=1;" vertex="1" parent="WIyWlLk6GJQsqaUBKTNV-1">
          <mxGeometry x="864.5" y="934" width="220" height="60" as="geometry" />
        </mxCell>
        <mxCell id="pQPHmSbJhxu7xn3oYJk7-142" style="edgeStyle=orthogonalEdgeStyle;rounded=0;orthogonalLoop=1;jettySize=auto;html=1;exitX=0.5;exitY=1;exitDx=0;exitDy=0;fontSize=14;" edge="1" parent="WIyWlLk6GJQsqaUBKTNV-1" source="pQPHmSbJhxu7xn3oYJk7-143">
          <mxGeometry relative="1" as="geometry">
            <mxPoint x="760" y="1860" as="targetPoint" />
            <Array as="points">
              <mxPoint x="1236" y="1430" />
              <mxPoint x="730" y="1430" />
              <mxPoint x="730" y="1860" />
            </Array>
          </mxGeometry>
        </mxCell>
        <mxCell id="pQPHmSbJhxu7xn3oYJk7-143" value="获取该有效合同" style="rounded=0;whiteSpace=wrap;html=1;" vertex="1" parent="WIyWlLk6GJQsqaUBKTNV-1">
          <mxGeometry x="1125.5" y="934" width="220" height="60" as="geometry" />
        </mxCell>
        <mxCell id="pQPHmSbJhxu7xn3oYJk7-144" style="edgeStyle=orthogonalEdgeStyle;rounded=0;orthogonalLoop=1;jettySize=auto;html=1;exitX=0.5;exitY=1;exitDx=0;exitDy=0;exitPerimeter=0;entryX=0.5;entryY=0;entryDx=0;entryDy=0;" edge="1" parent="WIyWlLk6GJQsqaUBKTNV-1" source="pQPHmSbJhxu7xn3oYJk7-148" target="pQPHmSbJhxu7xn3oYJk7-166">
          <mxGeometry relative="1" as="geometry" />
        </mxCell>
        <mxCell id="pQPHmSbJhxu7xn3oYJk7-145" value="否" style="edgeLabel;html=1;align=center;verticalAlign=middle;resizable=0;points=[];fontSize=14;" vertex="1" connectable="0" parent="pQPHmSbJhxu7xn3oYJk7-144">
          <mxGeometry x="0.1865" y="-1" relative="1" as="geometry">
            <mxPoint as="offset" />
          </mxGeometry>
        </mxCell>
        <mxCell id="pQPHmSbJhxu7xn3oYJk7-146" style="edgeStyle=orthogonalEdgeStyle;rounded=0;orthogonalLoop=1;jettySize=auto;html=1;exitX=1;exitY=0.5;exitDx=0;exitDy=0;exitPerimeter=0;fontSize=14;" edge="1" parent="WIyWlLk6GJQsqaUBKTNV-1" source="pQPHmSbJhxu7xn3oYJk7-148" target="pQPHmSbJhxu7xn3oYJk7-121">
          <mxGeometry relative="1" as="geometry" />
        </mxCell>
        <mxCell id="pQPHmSbJhxu7xn3oYJk7-147" value="是" style="edgeLabel;html=1;align=center;verticalAlign=middle;resizable=0;points=[];fontSize=14;" vertex="1" connectable="0" parent="pQPHmSbJhxu7xn3oYJk7-146">
          <mxGeometry x="-0.4279" y="-1" relative="1" as="geometry">
            <mxPoint as="offset" />
          </mxGeometry>
        </mxCell>
        <mxCell id="pQPHmSbJhxu7xn3oYJk7-148" value="&lt;span style=&quot;font-size: 14px; text-align: left;&quot;&gt;多笔有效合同，&lt;/span&gt;&lt;div&gt;&lt;span style=&quot;font-size: 14px; text-align: left;&quot;&gt;存在未完全进账的合同&lt;/span&gt;&lt;/div&gt;" style="strokeWidth=2;html=1;shape=mxgraph.flowchart.decision;whiteSpace=wrap;" vertex="1" parent="WIyWlLk6GJQsqaUBKTNV-1">
          <mxGeometry x="1426" y="774" width="187" height="101" as="geometry" />
        </mxCell>
        <mxCell id="pQPHmSbJhxu7xn3oYJk7-149" style="edgeStyle=orthogonalEdgeStyle;rounded=0;orthogonalLoop=1;jettySize=auto;html=1;exitX=0.5;exitY=1;exitDx=0;exitDy=0;entryX=0.5;entryY=0;entryDx=0;entryDy=0;entryPerimeter=0;" edge="1" parent="WIyWlLk6GJQsqaUBKTNV-1" target="pQPHmSbJhxu7xn3oYJk7-157">
          <mxGeometry relative="1" as="geometry">
            <mxPoint x="1832" y="1099" as="sourcePoint" />
          </mxGeometry>
        </mxCell>
        <mxCell id="pQPHmSbJhxu7xn3oYJk7-150" value="是" style="edgeLabel;html=1;align=center;verticalAlign=middle;resizable=0;points=[];fontSize=14;" vertex="1" connectable="0" parent="pQPHmSbJhxu7xn3oYJk7-149">
          <mxGeometry x="0.3203" relative="1" as="geometry">
            <mxPoint as="offset" />
          </mxGeometry>
        </mxCell>
        <mxCell id="pQPHmSbJhxu7xn3oYJk7-151" style="edgeStyle=orthogonalEdgeStyle;rounded=0;orthogonalLoop=1;jettySize=auto;html=1;entryX=0;entryY=0.5;entryDx=0;entryDy=0;fontSize=14;exitX=0.5;exitY=1;exitDx=0;exitDy=0;entryPerimeter=0;" edge="1" parent="WIyWlLk6GJQsqaUBKTNV-1" source="pQPHmSbJhxu7xn3oYJk7-183" target="pQPHmSbJhxu7xn3oYJk7-181">
          <mxGeometry relative="1" as="geometry">
            <mxPoint x="1832" y="1039" as="targetPoint" />
            <Array as="points">
              <mxPoint x="1765" y="2340" />
              <mxPoint x="1500" y="2340" />
              <mxPoint x="1500" y="1071" />
            </Array>
          </mxGeometry>
        </mxCell>
        <mxCell id="pQPHmSbJhxu7xn3oYJk7-152" value="&lt;span style=&quot;font-size: 14px&quot;&gt;循环&lt;/span&gt;" style="edgeLabel;html=1;align=center;verticalAlign=middle;resizable=0;points=[];" vertex="1" connectable="0" parent="pQPHmSbJhxu7xn3oYJk7-151">
          <mxGeometry x="0.6458" y="1" relative="1" as="geometry">
            <mxPoint as="offset" />
          </mxGeometry>
        </mxCell>
        <mxCell id="pQPHmSbJhxu7xn3oYJk7-153" style="edgeStyle=orthogonalEdgeStyle;rounded=0;orthogonalLoop=1;jettySize=auto;html=1;entryX=0;entryY=0.5;entryDx=0;entryDy=0;fontSize=14;entryPerimeter=0;" edge="1" parent="WIyWlLk6GJQsqaUBKTNV-1" source="pQPHmSbJhxu7xn3oYJk7-157" target="pQPHmSbJhxu7xn3oYJk7-181">
          <mxGeometry relative="1" as="geometry">
            <mxPoint x="1832" y="1039" as="targetPoint" />
            <Array as="points">
              <mxPoint x="1650" y="1201" />
              <mxPoint x="1650" y="1071" />
            </Array>
          </mxGeometry>
        </mxCell>
        <mxCell id="pQPHmSbJhxu7xn3oYJk7-154" value="循环" style="edgeLabel;html=1;align=center;verticalAlign=middle;resizable=0;points=[];fontSize=14;" vertex="1" connectable="0" parent="pQPHmSbJhxu7xn3oYJk7-153">
          <mxGeometry x="0.0705" y="2" relative="1" as="geometry">
            <mxPoint as="offset" />
          </mxGeometry>
        </mxCell>
        <mxCell id="pQPHmSbJhxu7xn3oYJk7-155" value="否" style="edgeLabel;html=1;align=center;verticalAlign=middle;resizable=0;points=[];fontSize=14;" vertex="1" connectable="0" parent="pQPHmSbJhxu7xn3oYJk7-153">
          <mxGeometry x="-0.8253" y="-1" relative="1" as="geometry">
            <mxPoint as="offset" />
          </mxGeometry>
        </mxCell>
        <mxCell id="pQPHmSbJhxu7xn3oYJk7-156" style="edgeStyle=orthogonalEdgeStyle;rounded=0;orthogonalLoop=1;jettySize=auto;html=1;exitX=0.5;exitY=1;exitDx=0;exitDy=0;exitPerimeter=0;" edge="1" parent="WIyWlLk6GJQsqaUBKTNV-1" source="pQPHmSbJhxu7xn3oYJk7-157">
          <mxGeometry relative="1" as="geometry">
            <mxPoint x="1831.666666666667" y="1530" as="targetPoint" />
          </mxGeometry>
        </mxCell>
        <mxCell id="pQPHmSbJhxu7xn3oYJk7-157" value="&lt;div style=&quot;text-align: left&quot;&gt;&lt;span style=&quot;font-size: 14px&quot;&gt;流水金额等于&lt;/span&gt;&lt;span style=&quot;font-size: 14px&quot;&gt;合同&lt;/span&gt;&lt;span style=&quot;font-size: 14px ; text-align: center&quot;&gt;未匹配&lt;/span&gt;&lt;/div&gt;&lt;div style=&quot;text-align: left&quot;&gt;&lt;span style=&quot;font-size: 14px ; text-align: center&quot;&gt;的金额且流水标识为0&lt;/span&gt;&lt;/div&gt;" style="strokeWidth=2;html=1;shape=mxgraph.flowchart.decision;whiteSpace=wrap;" vertex="1" parent="WIyWlLk6GJQsqaUBKTNV-1">
          <mxGeometry x="1738.5" y="1150" width="187" height="101" as="geometry" />
        </mxCell>
        <mxCell id="pQPHmSbJhxu7xn3oYJk7-158" style="edgeStyle=orthogonalEdgeStyle;rounded=0;orthogonalLoop=1;jettySize=auto;html=1;exitX=0;exitY=0.5;exitDx=0;exitDy=0;exitPerimeter=0;fontSize=14;" edge="1" parent="WIyWlLk6GJQsqaUBKTNV-1" source="pQPHmSbJhxu7xn3oYJk7-125">
          <mxGeometry relative="1" as="geometry">
            <mxPoint x="2150" y="1619" as="targetPoint" />
            <Array as="points">
              <mxPoint x="2080" y="1760" />
              <mxPoint x="2080" y="1619" />
            </Array>
          </mxGeometry>
        </mxCell>
        <mxCell id="pQPHmSbJhxu7xn3oYJk7-159" value="循环" style="edgeLabel;html=1;align=center;verticalAlign=middle;resizable=0;points=[];fontSize=14;" vertex="1" connectable="0" parent="pQPHmSbJhxu7xn3oYJk7-158">
          <mxGeometry x="0.1696" relative="1" as="geometry">
            <mxPoint as="offset" />
          </mxGeometry>
        </mxCell>
        <mxCell id="pQPHmSbJhxu7xn3oYJk7-160" value="否" style="edgeLabel;html=1;align=center;verticalAlign=middle;resizable=0;points=[];fontSize=14;" vertex="1" connectable="0" parent="pQPHmSbJhxu7xn3oYJk7-158">
          <mxGeometry x="-0.7941" y="-3" relative="1" as="geometry">
            <mxPoint as="offset" />
          </mxGeometry>
        </mxCell>
        <mxCell id="pQPHmSbJhxu7xn3oYJk7-161" style="edgeStyle=orthogonalEdgeStyle;rounded=0;orthogonalLoop=1;jettySize=auto;html=1;exitX=0.5;exitY=1;exitDx=0;exitDy=0;" edge="1" parent="WIyWlLk6GJQsqaUBKTNV-1" source="pQPHmSbJhxu7xn3oYJk7-162">
          <mxGeometry relative="1" as="geometry">
            <mxPoint x="2250" y="1449" as="targetPoint" />
          </mxGeometry>
        </mxCell>
        <mxCell id="pQPHmSbJhxu7xn3oYJk7-162" value="&lt;font style=&quot;font-size: 14px ; background-color: rgb(255 , 255 , 255)&quot;&gt;流水插入&lt;span style=&quot;text-align: left&quot;&gt;资金进账流水待定表&lt;br&gt;&lt;/span&gt;&lt;div style=&quot;color: rgb(8 , 8 , 8) ; font-family: &amp;#34;jetbrains mono&amp;#34; , monospace&quot;&gt;TZJJZLSDDB&lt;/div&gt;&lt;/font&gt;" style="rounded=0;whiteSpace=wrap;html=1;" vertex="1" parent="WIyWlLk6GJQsqaUBKTNV-1">
          <mxGeometry x="2140" y="1330" width="220" height="60" as="geometry" />
        </mxCell>
        <mxCell id="pQPHmSbJhxu7xn3oYJk7-163" style="edgeStyle=orthogonalEdgeStyle;rounded=0;orthogonalLoop=1;jettySize=auto;html=1;exitX=0.5;exitY=1;exitDx=0;exitDy=0;entryX=0.5;entryY=0;entryDx=0;entryDy=0;entryPerimeter=0;" edge="1" parent="WIyWlLk6GJQsqaUBKTNV-1" target="pQPHmSbJhxu7xn3oYJk7-125">
          <mxGeometry relative="1" as="geometry">
            <mxPoint x="2250" y="1638" as="sourcePoint" />
          </mxGeometry>
        </mxCell>
        <mxCell id="pQPHmSbJhxu7xn3oYJk7-164" value="是" style="edgeLabel;html=1;align=center;verticalAlign=middle;resizable=0;points=[];fontSize=14;" vertex="1" connectable="0" parent="pQPHmSbJhxu7xn3oYJk7-163">
          <mxGeometry x="0.2589" y="-1" relative="1" as="geometry">
            <mxPoint as="offset" />
          </mxGeometry>
        </mxCell>
        <mxCell id="pQPHmSbJhxu7xn3oYJk7-165" style="edgeStyle=orthogonalEdgeStyle;rounded=0;orthogonalLoop=1;jettySize=auto;html=1;entryX=0.5;entryY=0;entryDx=0;entryDy=0;fontSize=14;" edge="1" parent="WIyWlLk6GJQsqaUBKTNV-1" source="pQPHmSbJhxu7xn3oYJk7-166" target="pQPHmSbJhxu7xn3oYJk7-193">
          <mxGeometry relative="1" as="geometry">
            <Array as="points">
              <mxPoint x="1460" y="1430" />
              <mxPoint x="729" y="1430" />
            </Array>
          </mxGeometry>
        </mxCell>
        <mxCell id="pQPHmSbJhxu7xn3oYJk7-166" value="按照HTID倒序获取最后一笔&lt;br&gt;有效合同（HTZT=3）" style="rounded=0;whiteSpace=wrap;html=1;" vertex="1" parent="WIyWlLk6GJQsqaUBKTNV-1">
          <mxGeometry x="1409.5" y="932" width="220" height="62" as="geometry" />
        </mxCell>
        <mxCell id="pQPHmSbJhxu7xn3oYJk7-167" style="edgeStyle=orthogonalEdgeStyle;rounded=0;orthogonalLoop=1;jettySize=auto;html=1;exitX=0.5;exitY=1;exitDx=0;exitDy=0;exitPerimeter=0;entryX=0.5;entryY=0;entryDx=0;entryDy=0;" edge="1" parent="WIyWlLk6GJQsqaUBKTNV-1" source="pQPHmSbJhxu7xn3oYJk7-126" target="pQPHmSbJhxu7xn3oYJk7-139">
          <mxGeometry relative="1" as="geometry">
            <mxPoint x="237" y="726" as="targetPoint" />
            <mxPoint x="237" y="686" as="sourcePoint" />
            <Array as="points" />
          </mxGeometry>
        </mxCell>
        <mxCell id="pQPHmSbJhxu7xn3oYJk7-168" value="是" style="edgeLabel;html=1;align=center;verticalAlign=middle;resizable=0;points=[];" vertex="1" connectable="0" parent="pQPHmSbJhxu7xn3oYJk7-167">
          <mxGeometry x="-0.0839" y="1" relative="1" as="geometry">
            <mxPoint as="offset" />
          </mxGeometry>
        </mxCell>
        <UserObject label="&lt;div style=&quot;font-size: 1px&quot;&gt;&lt;p style=&quot;text-align:center;margin-left:0;margin-right:0;margin-top:0px;margin-bottom:0px;text-indent:0;vertical-align:middle;direction:ltr;&quot;&gt;&lt;font style=&quot;font-size:12px;font-family:0;color:#000000;direction:ltr;letter-spacing:0px;line-height:120%;opacity:1&quot;&gt;清空流水临时表和待定表&lt;br&gt;&lt;/font&gt;&lt;font style=&quot;font-size:12px;font-family:0;color:#000000;direction:ltr;letter-spacing:0px;line-height:120%;opacity:1&quot;&gt;TMP_JYLS_TMP&lt;br&gt;&lt;/font&gt;&lt;font style=&quot;font-size:12px;font-family:0;color:#000000;direction:ltr;letter-spacing:0px;line-height:120%;opacity:1&quot;&gt;TZJJZLSDDB&lt;br&gt;&lt;/font&gt;&lt;/p&gt;&lt;/div&gt;" tags="Background" id="pQPHmSbJhxu7xn3oYJk7-169">
          <mxCell style="verticalAlign=middle;align=center;overflow=width;vsdxID=8;fillColor=#FFFFFF;gradientColor=none;shape=stencil(nZBRDoQgDERP03+WHsHFe5iISyOCQdT19kIaIxq//Jtp3zTpAFaTaUYNUkwx+F6v1EYD+AUpyRkdKCYFqACrzgf9C352LfuxyWRWg1/yhT/nRE5IsZWuZtCSK8CPeI0e/hF+jV7AJM4PO7KWCyr390bSiNtEtQM=);strokeColor=#000000;strokeWidth=2;spacingTop=-3;spacingBottom=-3;spacingLeft=-3;spacingRight=-3;points=[];labelBackgroundColor=none;rounded=0;html=1;whiteSpace=wrap;" vertex="1" parent="WIyWlLk6GJQsqaUBKTNV-1">
            <mxGeometry x="611" y="360" width="237" height="56" as="geometry" />
          </mxCell>
        </UserObject>
        <UserObject label="" tags="Background" id="pQPHmSbJhxu7xn3oYJk7-170">
          <mxCell style="vsdxID=18;edgeStyle=none;startArrow=none;endArrow=block;startSize=5;endSize=5;strokeWidth=2;spacingTop=0;spacingBottom=0;spacingLeft=0;spacingRight=0;verticalAlign=middle;html=1;labelBackgroundColor=#ffffff;rounded=0;exitX=0.5021097046413502;exitY=1;exitDx=0;exitDy=0;exitPerimeter=0;entryX=0.5021097046413502;entryY=0;entryDx=0;entryDy=0;entryPerimeter=0;" edge="1" parent="WIyWlLk6GJQsqaUBKTNV-1" source="pQPHmSbJhxu7xn3oYJk7-169" target="pQPHmSbJhxu7xn3oYJk7-118">
            <mxGeometry relative="1" as="geometry">
              <mxPoint y="118" as="offset" />
              <Array as="points">
                <mxPoint x="730" y="412.9" />
                <mxPoint x="730" y="412.9" />
              </Array>
            </mxGeometry>
          </mxCell>
        </UserObject>
        <mxCell id="pQPHmSbJhxu7xn3oYJk7-171" style="edgeStyle=orthogonalEdgeStyle;rounded=0;orthogonalLoop=1;jettySize=auto;html=1;exitX=0.498;exitY=1.042;exitDx=0;exitDy=0;exitPerimeter=0;" edge="1" parent="WIyWlLk6GJQsqaUBKTNV-1">
          <mxGeometry relative="1" as="geometry">
            <mxPoint x="727" y="590" as="targetPoint" />
            <Array as="points">
              <mxPoint x="727" y="534" />
            </Array>
            <mxPoint x="726.0260000000001" y="533.9819999999999" as="sourcePoint" />
          </mxGeometry>
        </mxCell>
        <mxCell id="pQPHmSbJhxu7xn3oYJk7-172" style="edgeStyle=orthogonalEdgeStyle;rounded=0;orthogonalLoop=1;jettySize=auto;html=1;exitX=0.5;exitY=1;exitDx=0;exitDy=0;fontSize=14;" edge="1" parent="WIyWlLk6GJQsqaUBKTNV-1" source="pQPHmSbJhxu7xn3oYJk7-173">
          <mxGeometry relative="1" as="geometry">
            <mxPoint x="2249.857142857143" y="1979" as="targetPoint" />
          </mxGeometry>
        </mxCell>
        <mxCell id="pQPHmSbJhxu7xn3oYJk7-173" value="删除&lt;span style=&quot;font-size: 14px ; text-align: left&quot;&gt;待定表数据&lt;br&gt;&lt;/span&gt;&lt;div style=&quot;color: rgb(8 , 8 , 8) ; font-family: &amp;#34;jetbrains mono&amp;#34; , monospace ; font-size: 10.5pt&quot;&gt;&lt;span style=&quot;background-color: rgb(255 , 255 , 255)&quot;&gt;（删除TZJJZLSDDB匹配上的数据）&lt;/span&gt;&lt;/div&gt;" style="rounded=0;whiteSpace=wrap;html=1;" vertex="1" parent="WIyWlLk6GJQsqaUBKTNV-1">
          <mxGeometry x="2140" y="1858" width="220" height="60" as="geometry" />
        </mxCell>
        <mxCell id="pQPHmSbJhxu7xn3oYJk7-174" style="edgeStyle=orthogonalEdgeStyle;rounded=0;orthogonalLoop=1;jettySize=auto;html=1;exitX=0.5;exitY=1;exitDx=0;exitDy=0;exitPerimeter=0;entryX=0.5;entryY=0;entryDx=0;entryDy=0;" edge="1" parent="WIyWlLk6GJQsqaUBKTNV-1" source="pQPHmSbJhxu7xn3oYJk7-125" target="pQPHmSbJhxu7xn3oYJk7-173">
          <mxGeometry relative="1" as="geometry" />
        </mxCell>
        <mxCell id="pQPHmSbJhxu7xn3oYJk7-175" style="edgeStyle=orthogonalEdgeStyle;rounded=0;orthogonalLoop=1;jettySize=auto;html=1;exitX=0.5;exitY=1;exitDx=0;exitDy=0;exitPerimeter=0;entryX=0.5;entryY=0;entryDx=0;entryDy=0;fontSize=14;" edge="1" parent="WIyWlLk6GJQsqaUBKTNV-1" source="pQPHmSbJhxu7xn3oYJk7-179" target="pQPHmSbJhxu7xn3oYJk7-162">
          <mxGeometry relative="1" as="geometry" />
        </mxCell>
        <mxCell id="pQPHmSbJhxu7xn3oYJk7-176" value="是" style="edgeLabel;html=1;align=center;verticalAlign=middle;resizable=0;points=[];fontSize=14;" vertex="1" connectable="0" parent="pQPHmSbJhxu7xn3oYJk7-175">
          <mxGeometry x="-0.2392" relative="1" as="geometry">
            <mxPoint as="offset" />
          </mxGeometry>
        </mxCell>
        <mxCell id="pQPHmSbJhxu7xn3oYJk7-177" style="edgeStyle=orthogonalEdgeStyle;rounded=0;orthogonalLoop=1;jettySize=auto;html=1;exitX=1;exitY=0.5;exitDx=0;exitDy=0;exitPerimeter=0;fontSize=14;entryX=0.5;entryY=0;entryDx=0;entryDy=0;" edge="1" parent="WIyWlLk6GJQsqaUBKTNV-1" source="pQPHmSbJhxu7xn3oYJk7-179" target="pQPHmSbJhxu7xn3oYJk7-124">
          <mxGeometry relative="1" as="geometry">
            <mxPoint x="190" y="2600" as="targetPoint" />
            <Array as="points">
              <mxPoint x="2540" y="1240" />
              <mxPoint x="2540" y="2530" />
              <mxPoint x="729" y="2530" />
            </Array>
          </mxGeometry>
        </mxCell>
        <mxCell id="pQPHmSbJhxu7xn3oYJk7-178" value="否" style="edgeLabel;html=1;align=center;verticalAlign=middle;resizable=0;points=[];fontSize=14;" vertex="1" connectable="0" parent="pQPHmSbJhxu7xn3oYJk7-177">
          <mxGeometry x="-0.9626" relative="1" as="geometry">
            <mxPoint as="offset" />
          </mxGeometry>
        </mxCell>
        <mxCell id="pQPHmSbJhxu7xn3oYJk7-179" value="&lt;span style=&quot;font-size: 14px ; text-align: left&quot;&gt;流水匹配标识为0&lt;br&gt;&lt;/span&gt;" style="strokeWidth=2;html=1;shape=mxgraph.flowchart.decision;whiteSpace=wrap;" vertex="1" parent="WIyWlLk6GJQsqaUBKTNV-1">
          <mxGeometry x="2160" y="1190" width="187" height="101" as="geometry" />
        </mxCell>
        <mxCell id="pQPHmSbJhxu7xn3oYJk7-180" style="edgeStyle=orthogonalEdgeStyle;rounded=0;orthogonalLoop=1;jettySize=auto;html=1;entryX=0.662;entryY=0.004;entryDx=0;entryDy=0;fontSize=14;entryPerimeter=0;" edge="1" parent="WIyWlLk6GJQsqaUBKTNV-1" source="pQPHmSbJhxu7xn3oYJk7-119" target="pQPHmSbJhxu7xn3oYJk7-183">
          <mxGeometry relative="1" as="geometry" />
        </mxCell>
        <mxCell id="pQPHmSbJhxu7xn3oYJk7-181" value="&lt;div style=&quot;text-align: left&quot;&gt;&lt;div&gt;&lt;span style=&quot;font-size: 14px&quot;&gt;处理未完全&lt;/span&gt;&lt;/div&gt;&lt;div&gt;&lt;span style=&quot;font-size: 14px&quot;&gt;进账合同未&lt;/span&gt;&lt;span style=&quot;font-size: 14px&quot;&gt;结束&lt;/span&gt;&lt;/div&gt;&lt;/div&gt;" style="strokeWidth=2;html=1;shape=mxgraph.flowchart.decision;whiteSpace=wrap;" vertex="1" parent="WIyWlLk6GJQsqaUBKTNV-1">
          <mxGeometry x="1738.5" y="1020" width="187" height="101" as="geometry" />
        </mxCell>
        <mxCell id="pQPHmSbJhxu7xn3oYJk7-182" value="" style="group" vertex="1" connectable="0" parent="WIyWlLk6GJQsqaUBKTNV-1">
          <mxGeometry x="1560" y="1848" width="409" height="440" as="geometry" />
        </mxCell>
        <mxCell id="pQPHmSbJhxu7xn3oYJk7-183" value="" style="shape=process;whiteSpace=wrap;html=1;backgroundOutline=1;fontSize=14;" vertex="1" parent="pQPHmSbJhxu7xn3oYJk7-182">
          <mxGeometry width="409" height="440" as="geometry" />
        </mxCell>
        <UserObject label="&lt;div style=&quot;font-size: 1px&quot;&gt;&lt;p style=&quot;text-align:center;margin-left:0;margin-right:0;margin-top:0px;margin-bottom:0px;text-indent:0;vertical-align:middle;direction:ltr;&quot;&gt;&lt;font style=&quot;font-size:12px;font-family:0;color:#000000;direction:ltr;letter-spacing:0px;line-height:120%;opacity:1&quot;&gt;生成资金进账数据&lt;br/&gt;&lt;/font&gt;&lt;font style=&quot;font-size:12px;font-family:0;color:#000000;direction:ltr;letter-spacing:0px;line-height:120%;opacity:1&quot;&gt;插入TZJJZ表&lt;/font&gt;&lt;/p&gt;&lt;/div&gt;" tags="Background" id="pQPHmSbJhxu7xn3oYJk7-184">
          <mxCell style="verticalAlign=middle;align=center;overflow=width;vsdxID=14;fillColor=#FFFFFF;gradientColor=none;shape=stencil(nZBRDoQgDERP03+WHsHFe5iISyOCQdT19kIaIxq//Jtp3zTpAFaTaUYNUkwx+F6v1EYD+AUpyRkdKCYFqACrzgf9C352LfuxyWRWg1/yhT/nRE5IsZWuZtCSK8CPeI0e/hF+jV7AJM4PO7KWCyr390bSiNtEtQM=);strokeColor=#000000;strokeWidth=2;spacingTop=-3;spacingBottom=-3;spacingLeft=-3;spacingRight=-3;points=[];labelBackgroundColor=none;rounded=0;html=1;whiteSpace=wrap;" vertex="1" parent="pQPHmSbJhxu7xn3oYJk7-182">
            <mxGeometry x="79" y="48" width="237" height="70" as="geometry" />
          </mxCell>
        </UserObject>
        <UserObject label="&lt;div style=&quot;font-size: 1px&quot;&gt;&lt;p style=&quot;text-align:center;margin-left:0;margin-right:0;margin-top:0px;margin-bottom:0px;text-indent:0;vertical-align:middle;direction:ltr;&quot;&gt;&lt;font style=&quot;font-size:12px;font-family:0;color:#000000;direction:ltr;letter-spacing:0px;line-height:120%;opacity:1&quot;&gt;客户和销售发送匹配消息&lt;br/&gt;&lt;/font&gt;&lt;font style=&quot;font-size:12px;font-family:0;color:#000000;direction:ltr;letter-spacing:0px;line-height:120%;opacity:1&quot;&gt;PRO_XXGL_SENDMSG&lt;br/&gt;&lt;/font&gt;&lt;/p&gt;&lt;/div&gt;" tags="Background" id="pQPHmSbJhxu7xn3oYJk7-185">
          <mxCell style="verticalAlign=middle;align=center;overflow=width;vsdxID=12;fillColor=#FFFFFF;gradientColor=none;shape=stencil(nZBRDoQgDERP03+WHsHFe5iISyOCQdT19kIaIxq//Jtp3zTpAFaTaUYNUkwx+F6v1EYD+AUpyRkdKCYFqACrzgf9C352LfuxyWRWg1/yhT/nRE5IsZWuZtCSK8CPeI0e/hF+jV7AJM4PO7KWCyr390bSiNtEtQM=);strokeColor=#000000;strokeWidth=2;spacingTop=-3;spacingBottom=-3;spacingLeft=-3;spacingRight=-3;points=[];labelBackgroundColor=none;rounded=0;html=1;whiteSpace=wrap;" vertex="1" parent="pQPHmSbJhxu7xn3oYJk7-182">
            <mxGeometry x="81" y="343" width="237" height="66" as="geometry" />
          </mxCell>
        </UserObject>
        <UserObject label="&lt;div style=&quot;font-size: 1px&quot;&gt;&lt;p style=&quot;text-align:center;margin-left:0;margin-right:0;margin-top:0px;margin-bottom:0px;text-indent:0;vertical-align:middle;direction:ltr;&quot;&gt;&lt;font style=&quot;font-size:12px;font-family:0;color:#000000;direction:ltr;letter-spacing:0px;line-height:120%;opacity:1&quot;&gt;更新合同表&lt;br/&gt;&lt;/font&gt;&lt;font style=&quot;font-size:12px;font-family:0;color:#000000;direction:ltr;letter-spacing:0px;line-height:120%;opacity:1&quot;&gt;（更新LCHTRSGBD上的ZJJZ字段）&lt;/font&gt;&lt;/p&gt;&lt;/div&gt;" tags="Background" id="pQPHmSbJhxu7xn3oYJk7-186">
          <mxCell style="verticalAlign=middle;align=center;overflow=width;vsdxID=15;fillColor=#FFFFFF;gradientColor=none;shape=stencil(nZBRDoQgDERP03+WHsHFe5iISyOCQdT19kIaIxq//Jtp3zTpAFaTaUYNUkwx+F6v1EYD+AUpyRkdKCYFqACrzgf9C352LfuxyWRWg1/yhT/nRE5IsZWuZtCSK8CPeI0e/hF+jV7AJM4PO7KWCyr390bSiNtEtQM=);strokeColor=#000000;strokeWidth=2;spacingTop=-3;spacingBottom=-3;spacingLeft=-3;spacingRight=-3;points=[];labelBackgroundColor=none;rounded=0;html=1;whiteSpace=wrap;" vertex="1" parent="pQPHmSbJhxu7xn3oYJk7-182">
            <mxGeometry x="80" y="143" width="237" height="70" as="geometry" />
          </mxCell>
        </UserObject>
        <UserObject label="&lt;div style=&quot;font-size: 1px&quot;&gt;&lt;p style=&quot;text-align:center;margin-left:0;margin-right:0;margin-top:0px;margin-bottom:0px;text-indent:0;vertical-align:middle;direction:ltr;&quot;&gt;&lt;font style=&quot;font-size:12px;font-family:0;color:#000000;direction:ltr;letter-spacing:0px;line-height:120%;opacity:1&quot;&gt;更新进账流水&lt;br/&gt;&lt;/font&gt;&lt;font style=&quot;font-size:12px;font-family:0;color:#000000;direction:ltr;letter-spacing:0px;line-height:120%;opacity:1&quot;&gt;（更新TZJJZLS上的CLZT、CLFS、CLSJ、JYLSH等字段）&lt;/font&gt;&lt;/p&gt;&lt;/div&gt;" tags="Background" id="pQPHmSbJhxu7xn3oYJk7-187">
          <mxCell style="verticalAlign=middle;align=center;overflow=width;vsdxID=16;fillColor=#FFFFFF;gradientColor=none;shape=stencil(nZBRDoQgDERP03+WHsHFe5iISyOCQdT19kIaIxq//Jtp3zTpAFaTaUYNUkwx+F6v1EYD+AUpyRkdKCYFqACrzgf9C352LfuxyWRWg1/yhT/nRE5IsZWuZtCSK8CPeI0e/hF+jV7AJM4PO7KWCyr390bSiNtEtQM=);strokeColor=#000000;strokeWidth=2;spacingTop=-3;spacingBottom=-3;spacingLeft=-3;spacingRight=-3;points=[];labelBackgroundColor=none;rounded=0;html=1;whiteSpace=wrap;" vertex="1" parent="pQPHmSbJhxu7xn3oYJk7-182">
            <mxGeometry x="80" y="243" width="237" height="70" as="geometry" />
          </mxCell>
        </UserObject>
        <UserObject label="" tags="Background" id="pQPHmSbJhxu7xn3oYJk7-188">
          <mxCell style="vsdxID=23;edgeStyle=none;startArrow=none;endArrow=block;startSize=5;endSize=5;strokeWidth=2;spacingTop=0;spacingBottom=0;spacingLeft=0;spacingRight=0;verticalAlign=middle;html=1;labelBackgroundColor=#ffffff;rounded=0;exitX=0.5021097046413502;exitY=1;exitDx=0;exitDy=0;exitPerimeter=0;entryX=0.5021097046413502;entryY=0;entryDx=0;entryDy=0;entryPerimeter=0;" edge="1" parent="pQPHmSbJhxu7xn3oYJk7-182" source="pQPHmSbJhxu7xn3oYJk7-184" target="pQPHmSbJhxu7xn3oYJk7-186">
            <mxGeometry relative="1" as="geometry">
              <mxPoint y="116" as="offset" />
              <Array as="points" />
            </mxGeometry>
          </mxCell>
        </UserObject>
        <mxCell id="pQPHmSbJhxu7xn3oYJk7-189" vertex="1" parent="pQPHmSbJhxu7xn3oYJk7-182">
          <mxGeometry x="199" y="212" as="geometry" />
        </mxCell>
        <UserObject label="" tags="Background" id="pQPHmSbJhxu7xn3oYJk7-190">
          <mxCell style="vsdxID=24;edgeStyle=none;startArrow=none;endArrow=block;startSize=5;endSize=5;strokeWidth=2;spacingTop=0;spacingBottom=0;spacingLeft=0;spacingRight=0;verticalAlign=middle;html=1;labelBackgroundColor=#ffffff;rounded=0;entryX=0.5021097046413502;entryY=0;entryDx=0;entryDy=0;entryPerimeter=0;" edge="1" parent="pQPHmSbJhxu7xn3oYJk7-182" source="pQPHmSbJhxu7xn3oYJk7-189" target="pQPHmSbJhxu7xn3oYJk7-187">
            <mxGeometry relative="1" as="geometry">
              <mxPoint y="117" as="offset" />
              <Array as="points">
                <mxPoint x="199" y="227.40999999999985" />
                <mxPoint x="199" y="227.40999999999985" />
              </Array>
            </mxGeometry>
          </mxCell>
        </UserObject>
        <UserObject label="" tags="Background" id="pQPHmSbJhxu7xn3oYJk7-191">
          <mxCell style="vsdxID=25;edgeStyle=none;startArrow=none;endArrow=block;startSize=5;endSize=5;strokeWidth=2;spacingTop=0;spacingBottom=0;spacingLeft=0;spacingRight=0;verticalAlign=middle;html=1;labelBackgroundColor=#ffffff;rounded=0;exitX=0.5021097046413502;exitY=1;exitDx=0;exitDy=0;exitPerimeter=0;entryX=0.5021097046413502;entryY=0;entryDx=0;entryDy=0;entryPerimeter=0;" edge="1" parent="pQPHmSbJhxu7xn3oYJk7-182" source="pQPHmSbJhxu7xn3oYJk7-187" target="pQPHmSbJhxu7xn3oYJk7-185">
            <mxGeometry relative="1" as="geometry">
              <mxPoint y="116" as="offset" />
              <Array as="points">
                <mxPoint x="199" y="327.8900000000003" />
                <mxPoint x="199" y="327.8900000000003" />
              </Array>
            </mxGeometry>
          </mxCell>
        </UserObject>
        <mxCell id="pQPHmSbJhxu7xn3oYJk7-192" value="" style="group" vertex="1" connectable="0" parent="WIyWlLk6GJQsqaUBKTNV-1">
          <mxGeometry x="524" y="1860" width="409" height="440" as="geometry" />
        </mxCell>
        <mxCell id="pQPHmSbJhxu7xn3oYJk7-193" value="" style="shape=process;whiteSpace=wrap;html=1;backgroundOutline=1;fontSize=14;" vertex="1" parent="pQPHmSbJhxu7xn3oYJk7-192">
          <mxGeometry width="409" height="440" as="geometry" />
        </mxCell>
        <UserObject label="&lt;div style=&quot;font-size: 1px&quot;&gt;&lt;p style=&quot;text-align:center;margin-left:0;margin-right:0;margin-top:0px;margin-bottom:0px;text-indent:0;vertical-align:middle;direction:ltr;&quot;&gt;&lt;font style=&quot;font-size:12px;font-family:0;color:#000000;direction:ltr;letter-spacing:0px;line-height:120%;opacity:1&quot;&gt;生成资金进账数据&lt;br/&gt;&lt;/font&gt;&lt;font style=&quot;font-size:12px;font-family:0;color:#000000;direction:ltr;letter-spacing:0px;line-height:120%;opacity:1&quot;&gt;插入TZJJZ表&lt;/font&gt;&lt;/p&gt;&lt;/div&gt;" tags="Background" id="pQPHmSbJhxu7xn3oYJk7-194">
          <mxCell style="verticalAlign=middle;align=center;overflow=width;vsdxID=14;fillColor=#FFFFFF;gradientColor=none;shape=stencil(nZBRDoQgDERP03+WHsHFe5iISyOCQdT19kIaIxq//Jtp3zTpAFaTaUYNUkwx+F6v1EYD+AUpyRkdKCYFqACrzgf9C352LfuxyWRWg1/yhT/nRE5IsZWuZtCSK8CPeI0e/hF+jV7AJM4PO7KWCyr390bSiNtEtQM=);strokeColor=#000000;strokeWidth=2;spacingTop=-3;spacingBottom=-3;spacingLeft=-3;spacingRight=-3;points=[];labelBackgroundColor=none;rounded=0;html=1;whiteSpace=wrap;" vertex="1" parent="pQPHmSbJhxu7xn3oYJk7-192">
            <mxGeometry x="79" y="48" width="237" height="70" as="geometry" />
          </mxCell>
        </UserObject>
        <UserObject label="&lt;div style=&quot;font-size: 1px&quot;&gt;&lt;p style=&quot;text-align:center;margin-left:0;margin-right:0;margin-top:0px;margin-bottom:0px;text-indent:0;vertical-align:middle;direction:ltr;&quot;&gt;&lt;font style=&quot;font-size:12px;font-family:0;color:#000000;direction:ltr;letter-spacing:0px;line-height:120%;opacity:1&quot;&gt;客户和销售发送匹配消息&lt;br/&gt;&lt;/font&gt;&lt;font style=&quot;font-size:12px;font-family:0;color:#000000;direction:ltr;letter-spacing:0px;line-height:120%;opacity:1&quot;&gt;PRO_XXGL_SENDMSG&lt;br/&gt;&lt;/font&gt;&lt;/p&gt;&lt;/div&gt;" tags="Background" id="pQPHmSbJhxu7xn3oYJk7-195">
          <mxCell style="verticalAlign=middle;align=center;overflow=width;vsdxID=12;fillColor=#FFFFFF;gradientColor=none;shape=stencil(nZBRDoQgDERP03+WHsHFe5iISyOCQdT19kIaIxq//Jtp3zTpAFaTaUYNUkwx+F6v1EYD+AUpyRkdKCYFqACrzgf9C352LfuxyWRWg1/yhT/nRE5IsZWuZtCSK8CPeI0e/hF+jV7AJM4PO7KWCyr390bSiNtEtQM=);strokeColor=#000000;strokeWidth=2;spacingTop=-3;spacingBottom=-3;spacingLeft=-3;spacingRight=-3;points=[];labelBackgroundColor=none;rounded=0;html=1;whiteSpace=wrap;" vertex="1" parent="pQPHmSbJhxu7xn3oYJk7-192">
            <mxGeometry x="81" y="343" width="237" height="66" as="geometry" />
          </mxCell>
        </UserObject>
        <UserObject label="&lt;div style=&quot;font-size: 1px&quot;&gt;&lt;p style=&quot;text-align:center;margin-left:0;margin-right:0;margin-top:0px;margin-bottom:0px;text-indent:0;vertical-align:middle;direction:ltr;&quot;&gt;&lt;font style=&quot;font-size:12px;font-family:0;color:#000000;direction:ltr;letter-spacing:0px;line-height:120%;opacity:1&quot;&gt;更新合同表&lt;br/&gt;&lt;/font&gt;&lt;font style=&quot;font-size:12px;font-family:0;color:#000000;direction:ltr;letter-spacing:0px;line-height:120%;opacity:1&quot;&gt;（更新LCHTRSGBD上的ZJJZ字段）&lt;/font&gt;&lt;/p&gt;&lt;/div&gt;" tags="Background" id="pQPHmSbJhxu7xn3oYJk7-196">
          <mxCell style="verticalAlign=middle;align=center;overflow=width;vsdxID=15;fillColor=#FFFFFF;gradientColor=none;shape=stencil(nZBRDoQgDERP03+WHsHFe5iISyOCQdT19kIaIxq//Jtp3zTpAFaTaUYNUkwx+F6v1EYD+AUpyRkdKCYFqACrzgf9C352LfuxyWRWg1/yhT/nRE5IsZWuZtCSK8CPeI0e/hF+jV7AJM4PO7KWCyr390bSiNtEtQM=);strokeColor=#000000;strokeWidth=2;spacingTop=-3;spacingBottom=-3;spacingLeft=-3;spacingRight=-3;points=[];labelBackgroundColor=none;rounded=0;html=1;whiteSpace=wrap;" vertex="1" parent="pQPHmSbJhxu7xn3oYJk7-192">
            <mxGeometry x="80" y="143" width="237" height="70" as="geometry" />
          </mxCell>
        </UserObject>
        <UserObject label="&lt;div style=&quot;font-size: 1px&quot;&gt;&lt;p style=&quot;text-align:center;margin-left:0;margin-right:0;margin-top:0px;margin-bottom:0px;text-indent:0;vertical-align:middle;direction:ltr;&quot;&gt;&lt;font style=&quot;font-size:12px;font-family:0;color:#000000;direction:ltr;letter-spacing:0px;line-height:120%;opacity:1&quot;&gt;更新进账流水&lt;br/&gt;&lt;/font&gt;&lt;font style=&quot;font-size:12px;font-family:0;color:#000000;direction:ltr;letter-spacing:0px;line-height:120%;opacity:1&quot;&gt;（更新TZJJZLS上的CLZT、CLFS、CLSJ、JYLSH等字段）&lt;/font&gt;&lt;/p&gt;&lt;/div&gt;" tags="Background" id="pQPHmSbJhxu7xn3oYJk7-197">
          <mxCell style="verticalAlign=middle;align=center;overflow=width;vsdxID=16;fillColor=#FFFFFF;gradientColor=none;shape=stencil(nZBRDoQgDERP03+WHsHFe5iISyOCQdT19kIaIxq//Jtp3zTpAFaTaUYNUkwx+F6v1EYD+AUpyRkdKCYFqACrzgf9C352LfuxyWRWg1/yhT/nRE5IsZWuZtCSK8CPeI0e/hF+jV7AJM4PO7KWCyr390bSiNtEtQM=);strokeColor=#000000;strokeWidth=2;spacingTop=-3;spacingBottom=-3;spacingLeft=-3;spacingRight=-3;points=[];labelBackgroundColor=none;rounded=0;html=1;whiteSpace=wrap;" vertex="1" parent="pQPHmSbJhxu7xn3oYJk7-192">
            <mxGeometry x="80" y="243" width="237" height="70" as="geometry" />
          </mxCell>
        </UserObject>
        <UserObject label="" tags="Background" id="pQPHmSbJhxu7xn3oYJk7-198">
          <mxCell style="vsdxID=23;edgeStyle=none;startArrow=none;endArrow=block;startSize=5;endSize=5;strokeWidth=2;spacingTop=0;spacingBottom=0;spacingLeft=0;spacingRight=0;verticalAlign=middle;html=1;labelBackgroundColor=#ffffff;rounded=0;exitX=0.5021097046413502;exitY=1;exitDx=0;exitDy=0;exitPerimeter=0;entryX=0.5021097046413502;entryY=0;entryDx=0;entryDy=0;entryPerimeter=0;" edge="1" parent="pQPHmSbJhxu7xn3oYJk7-192" source="pQPHmSbJhxu7xn3oYJk7-194" target="pQPHmSbJhxu7xn3oYJk7-196">
            <mxGeometry relative="1" as="geometry">
              <mxPoint y="116" as="offset" />
              <Array as="points" />
            </mxGeometry>
          </mxCell>
        </UserObject>
        <mxCell id="pQPHmSbJhxu7xn3oYJk7-199" vertex="1" parent="pQPHmSbJhxu7xn3oYJk7-192">
          <mxGeometry x="199" y="212" as="geometry" />
        </mxCell>
        <UserObject label="" tags="Background" id="pQPHmSbJhxu7xn3oYJk7-200">
          <mxCell style="vsdxID=24;edgeStyle=none;startArrow=none;endArrow=block;startSize=5;endSize=5;strokeWidth=2;spacingTop=0;spacingBottom=0;spacingLeft=0;spacingRight=0;verticalAlign=middle;html=1;labelBackgroundColor=#ffffff;rounded=0;entryX=0.5021097046413502;entryY=0;entryDx=0;entryDy=0;entryPerimeter=0;" edge="1" parent="pQPHmSbJhxu7xn3oYJk7-192" source="pQPHmSbJhxu7xn3oYJk7-199" target="pQPHmSbJhxu7xn3oYJk7-197">
            <mxGeometry relative="1" as="geometry">
              <mxPoint y="117" as="offset" />
              <Array as="points">
                <mxPoint x="199" y="227.40999999999985" />
                <mxPoint x="199" y="227.40999999999985" />
              </Array>
            </mxGeometry>
          </mxCell>
        </UserObject>
        <UserObject label="" tags="Background" id="pQPHmSbJhxu7xn3oYJk7-201">
          <mxCell style="vsdxID=25;edgeStyle=none;startArrow=none;endArrow=block;startSize=5;endSize=5;strokeWidth=2;spacingTop=0;spacingBottom=0;spacingLeft=0;spacingRight=0;verticalAlign=middle;html=1;labelBackgroundColor=#ffffff;rounded=0;exitX=0.5021097046413502;exitY=1;exitDx=0;exitDy=0;exitPerimeter=0;entryX=0.5021097046413502;entryY=0;entryDx=0;entryDy=0;entryPerimeter=0;" edge="1" parent="pQPHmSbJhxu7xn3oYJk7-192" source="pQPHmSbJhxu7xn3oYJk7-197" target="pQPHmSbJhxu7xn3oYJk7-195">
            <mxGeometry relative="1" as="geometry">
              <mxPoint y="116" as="offset" />
              <Array as="points">
                <mxPoint x="199" y="327.8900000000003" />
                <mxPoint x="199" y="327.8900000000003" />
              </Array>
            </mxGeometry>
          </mxCell>
        </UserObject>
        <mxCell id="pQPHmSbJhxu7xn3oYJk7-202" value="" style="group" vertex="1" connectable="0" parent="WIyWlLk6GJQsqaUBKTNV-1">
          <mxGeometry x="2067" y="1979" width="409" height="440" as="geometry" />
        </mxCell>
        <mxCell id="pQPHmSbJhxu7xn3oYJk7-203" value="" style="shape=process;whiteSpace=wrap;html=1;backgroundOutline=1;fontSize=14;" vertex="1" parent="pQPHmSbJhxu7xn3oYJk7-202">
          <mxGeometry width="409" height="440" as="geometry" />
        </mxCell>
        <UserObject label="&lt;div style=&quot;font-size: 1px&quot;&gt;&lt;p style=&quot;text-align:center;margin-left:0;margin-right:0;margin-top:0px;margin-bottom:0px;text-indent:0;vertical-align:middle;direction:ltr;&quot;&gt;&lt;font style=&quot;font-size:12px;font-family:0;color:#000000;direction:ltr;letter-spacing:0px;line-height:120%;opacity:1&quot;&gt;生成资金进账数据&lt;br/&gt;&lt;/font&gt;&lt;font style=&quot;font-size:12px;font-family:0;color:#000000;direction:ltr;letter-spacing:0px;line-height:120%;opacity:1&quot;&gt;插入TZJJZ表&lt;/font&gt;&lt;/p&gt;&lt;/div&gt;" tags="Background" id="pQPHmSbJhxu7xn3oYJk7-204">
          <mxCell style="verticalAlign=middle;align=center;overflow=width;vsdxID=14;fillColor=#FFFFFF;gradientColor=none;shape=stencil(nZBRDoQgDERP03+WHsHFe5iISyOCQdT19kIaIxq//Jtp3zTpAFaTaUYNUkwx+F6v1EYD+AUpyRkdKCYFqACrzgf9C352LfuxyWRWg1/yhT/nRE5IsZWuZtCSK8CPeI0e/hF+jV7AJM4PO7KWCyr390bSiNtEtQM=);strokeColor=#000000;strokeWidth=2;spacingTop=-3;spacingBottom=-3;spacingLeft=-3;spacingRight=-3;points=[];labelBackgroundColor=none;rounded=0;html=1;whiteSpace=wrap;" vertex="1" parent="pQPHmSbJhxu7xn3oYJk7-202">
            <mxGeometry x="79" y="48" width="237" height="70" as="geometry" />
          </mxCell>
        </UserObject>
        <UserObject label="&lt;div style=&quot;font-size: 1px&quot;&gt;&lt;p style=&quot;text-align:center;margin-left:0;margin-right:0;margin-top:0px;margin-bottom:0px;text-indent:0;vertical-align:middle;direction:ltr;&quot;&gt;&lt;font style=&quot;font-size:12px;font-family:0;color:#000000;direction:ltr;letter-spacing:0px;line-height:120%;opacity:1&quot;&gt;客户和销售发送匹配消息&lt;br/&gt;&lt;/font&gt;&lt;font style=&quot;font-size:12px;font-family:0;color:#000000;direction:ltr;letter-spacing:0px;line-height:120%;opacity:1&quot;&gt;PRO_XXGL_SENDMSG&lt;br/&gt;&lt;/font&gt;&lt;/p&gt;&lt;/div&gt;" tags="Background" id="pQPHmSbJhxu7xn3oYJk7-205">
          <mxCell style="verticalAlign=middle;align=center;overflow=width;vsdxID=12;fillColor=#FFFFFF;gradientColor=none;shape=stencil(nZBRDoQgDERP03+WHsHFe5iISyOCQdT19kIaIxq//Jtp3zTpAFaTaUYNUkwx+F6v1EYD+AUpyRkdKCYFqACrzgf9C352LfuxyWRWg1/yhT/nRE5IsZWuZtCSK8CPeI0e/hF+jV7AJM4PO7KWCyr390bSiNtEtQM=);strokeColor=#000000;strokeWidth=2;spacingTop=-3;spacingBottom=-3;spacingLeft=-3;spacingRight=-3;points=[];labelBackgroundColor=none;rounded=0;html=1;whiteSpace=wrap;" vertex="1" parent="pQPHmSbJhxu7xn3oYJk7-202">
            <mxGeometry x="81" y="343" width="237" height="66" as="geometry" />
          </mxCell>
        </UserObject>
        <UserObject label="&lt;div style=&quot;font-size: 1px&quot;&gt;&lt;p style=&quot;text-align:center;margin-left:0;margin-right:0;margin-top:0px;margin-bottom:0px;text-indent:0;vertical-align:middle;direction:ltr;&quot;&gt;&lt;font style=&quot;font-size:12px;font-family:0;color:#000000;direction:ltr;letter-spacing:0px;line-height:120%;opacity:1&quot;&gt;更新合同表&lt;br/&gt;&lt;/font&gt;&lt;font style=&quot;font-size:12px;font-family:0;color:#000000;direction:ltr;letter-spacing:0px;line-height:120%;opacity:1&quot;&gt;（更新LCHTRSGBD上的ZJJZ字段）&lt;/font&gt;&lt;/p&gt;&lt;/div&gt;" tags="Background" id="pQPHmSbJhxu7xn3oYJk7-206">
          <mxCell style="verticalAlign=middle;align=center;overflow=width;vsdxID=15;fillColor=#FFFFFF;gradientColor=none;shape=stencil(nZBRDoQgDERP03+WHsHFe5iISyOCQdT19kIaIxq//Jtp3zTpAFaTaUYNUkwx+F6v1EYD+AUpyRkdKCYFqACrzgf9C352LfuxyWRWg1/yhT/nRE5IsZWuZtCSK8CPeI0e/hF+jV7AJM4PO7KWCyr390bSiNtEtQM=);strokeColor=#000000;strokeWidth=2;spacingTop=-3;spacingBottom=-3;spacingLeft=-3;spacingRight=-3;points=[];labelBackgroundColor=none;rounded=0;html=1;whiteSpace=wrap;" vertex="1" parent="pQPHmSbJhxu7xn3oYJk7-202">
            <mxGeometry x="80" y="143" width="237" height="70" as="geometry" />
          </mxCell>
        </UserObject>
        <UserObject label="&lt;div style=&quot;font-size: 1px&quot;&gt;&lt;p style=&quot;text-align:center;margin-left:0;margin-right:0;margin-top:0px;margin-bottom:0px;text-indent:0;vertical-align:middle;direction:ltr;&quot;&gt;&lt;font style=&quot;font-size:12px;font-family:0;color:#000000;direction:ltr;letter-spacing:0px;line-height:120%;opacity:1&quot;&gt;更新进账流水&lt;br/&gt;&lt;/font&gt;&lt;font style=&quot;font-size:12px;font-family:0;color:#000000;direction:ltr;letter-spacing:0px;line-height:120%;opacity:1&quot;&gt;（更新TZJJZLS上的CLZT、CLFS、CLSJ、JYLSH等字段）&lt;/font&gt;&lt;/p&gt;&lt;/div&gt;" tags="Background" id="pQPHmSbJhxu7xn3oYJk7-207">
          <mxCell style="verticalAlign=middle;align=center;overflow=width;vsdxID=16;fillColor=#FFFFFF;gradientColor=none;shape=stencil(nZBRDoQgDERP03+WHsHFe5iISyOCQdT19kIaIxq//Jtp3zTpAFaTaUYNUkwx+F6v1EYD+AUpyRkdKCYFqACrzgf9C352LfuxyWRWg1/yhT/nRE5IsZWuZtCSK8CPeI0e/hF+jV7AJM4PO7KWCyr390bSiNtEtQM=);strokeColor=#000000;strokeWidth=2;spacingTop=-3;spacingBottom=-3;spacingLeft=-3;spacingRight=-3;points=[];labelBackgroundColor=none;rounded=0;html=1;whiteSpace=wrap;" vertex="1" parent="pQPHmSbJhxu7xn3oYJk7-202">
            <mxGeometry x="80" y="243" width="237" height="70" as="geometry" />
          </mxCell>
        </UserObject>
        <UserObject label="" tags="Background" id="pQPHmSbJhxu7xn3oYJk7-208">
          <mxCell style="vsdxID=23;edgeStyle=none;startArrow=none;endArrow=block;startSize=5;endSize=5;strokeWidth=2;spacingTop=0;spacingBottom=0;spacingLeft=0;spacingRight=0;verticalAlign=middle;html=1;labelBackgroundColor=#ffffff;rounded=0;exitX=0.5021097046413502;exitY=1;exitDx=0;exitDy=0;exitPerimeter=0;entryX=0.5021097046413502;entryY=0;entryDx=0;entryDy=0;entryPerimeter=0;" edge="1" parent="pQPHmSbJhxu7xn3oYJk7-202" source="pQPHmSbJhxu7xn3oYJk7-204" target="pQPHmSbJhxu7xn3oYJk7-206">
            <mxGeometry relative="1" as="geometry">
              <mxPoint y="116" as="offset" />
              <Array as="points" />
            </mxGeometry>
          </mxCell>
        </UserObject>
        <mxCell id="pQPHmSbJhxu7xn3oYJk7-209" vertex="1" parent="pQPHmSbJhxu7xn3oYJk7-202">
          <mxGeometry x="199" y="212" as="geometry" />
        </mxCell>
        <UserObject label="" tags="Background" id="pQPHmSbJhxu7xn3oYJk7-210">
          <mxCell style="vsdxID=24;edgeStyle=none;startArrow=none;endArrow=block;startSize=5;endSize=5;strokeWidth=2;spacingTop=0;spacingBottom=0;spacingLeft=0;spacingRight=0;verticalAlign=middle;html=1;labelBackgroundColor=#ffffff;rounded=0;entryX=0.5021097046413502;entryY=0;entryDx=0;entryDy=0;entryPerimeter=0;" edge="1" parent="pQPHmSbJhxu7xn3oYJk7-202" source="pQPHmSbJhxu7xn3oYJk7-209" target="pQPHmSbJhxu7xn3oYJk7-207">
            <mxGeometry relative="1" as="geometry">
              <mxPoint y="117" as="offset" />
              <Array as="points">
                <mxPoint x="199" y="227.40999999999985" />
                <mxPoint x="199" y="227.40999999999985" />
              </Array>
            </mxGeometry>
          </mxCell>
        </UserObject>
        <UserObject label="" tags="Background" id="pQPHmSbJhxu7xn3oYJk7-211">
          <mxCell style="vsdxID=25;edgeStyle=none;startArrow=none;endArrow=block;startSize=5;endSize=5;strokeWidth=2;spacingTop=0;spacingBottom=0;spacingLeft=0;spacingRight=0;verticalAlign=middle;html=1;labelBackgroundColor=#ffffff;rounded=0;exitX=0.5021097046413502;exitY=1;exitDx=0;exitDy=0;exitPerimeter=0;entryX=0.5021097046413502;entryY=0;entryDx=0;entryDy=0;entryPerimeter=0;" edge="1" parent="pQPHmSbJhxu7xn3oYJk7-202" source="pQPHmSbJhxu7xn3oYJk7-207" target="pQPHmSbJhxu7xn3oYJk7-205">
            <mxGeometry relative="1" as="geometry">
              <mxPoint y="116" as="offset" />
              <Array as="points">
                <mxPoint x="199" y="327.8900000000003" />
                <mxPoint x="199" y="327.8900000000003" />
              </Array>
            </mxGeometry>
          </mxCell>
        </UserObject>
        <mxCell id="pQPHmSbJhxu7xn3oYJk7-212" style="edgeStyle=orthogonalEdgeStyle;rounded=0;orthogonalLoop=1;jettySize=auto;html=1;exitX=0.5;exitY=1;exitDx=0;exitDy=0;entryX=0;entryY=0.5;entryDx=0;entryDy=0;fontSize=14;entryPerimeter=0;" edge="1" parent="WIyWlLk6GJQsqaUBKTNV-1" source="pQPHmSbJhxu7xn3oYJk7-203" target="pQPHmSbJhxu7xn3oYJk7-216">
          <mxGeometry relative="1" as="geometry">
            <mxPoint x="2140" y="1608" as="targetPoint" />
            <Array as="points">
              <mxPoint x="2271" y="2469" />
              <mxPoint x="2010" y="2469" />
              <mxPoint x="2010" y="1619" />
            </Array>
          </mxGeometry>
        </mxCell>
        <mxCell id="pQPHmSbJhxu7xn3oYJk7-213" value="循环" style="edgeLabel;html=1;align=center;verticalAlign=middle;resizable=0;points=[];fontSize=14;" vertex="1" connectable="0" parent="pQPHmSbJhxu7xn3oYJk7-212">
          <mxGeometry x="0.6873" y="1" relative="1" as="geometry">
            <mxPoint as="offset" />
          </mxGeometry>
        </mxCell>
        <mxCell id="pQPHmSbJhxu7xn3oYJk7-214" style="edgeStyle=orthogonalEdgeStyle;rounded=0;orthogonalLoop=1;jettySize=auto;html=1;fontSize=14;entryX=0.5;entryY=0;entryDx=0;entryDy=0;" edge="1" parent="WIyWlLk6GJQsqaUBKTNV-1" source="pQPHmSbJhxu7xn3oYJk7-216" target="pQPHmSbJhxu7xn3oYJk7-124">
          <mxGeometry relative="1" as="geometry">
            <mxPoint x="730" y="2550" as="targetPoint" />
            <Array as="points">
              <mxPoint x="2540" y="1618" />
              <mxPoint x="2540" y="2530" />
              <mxPoint x="729" y="2530" />
            </Array>
          </mxGeometry>
        </mxCell>
        <mxCell id="pQPHmSbJhxu7xn3oYJk7-215" value="否" style="edgeLabel;html=1;align=center;verticalAlign=middle;resizable=0;points=[];fontSize=14;" vertex="1" connectable="0" parent="pQPHmSbJhxu7xn3oYJk7-214">
          <mxGeometry x="-0.9538" relative="1" as="geometry">
            <mxPoint as="offset" />
          </mxGeometry>
        </mxCell>
        <mxCell id="pQPHmSbJhxu7xn3oYJk7-216" value="&lt;div style=&quot;text-align: left&quot;&gt;&lt;span style=&quot;font-size: 14px&quot;&gt;处理未完全&lt;/span&gt;&lt;/div&gt;&lt;div style=&quot;text-align: left&quot;&gt;&lt;span style=&quot;font-size: 14px&quot;&gt;进账合同未&lt;/span&gt;&lt;span style=&quot;font-size: 14px&quot;&gt;结束&lt;/span&gt;&lt;/div&gt;" style="strokeWidth=2;html=1;shape=mxgraph.flowchart.decision;whiteSpace=wrap;" vertex="1" parent="WIyWlLk6GJQsqaUBKTNV-1">
          <mxGeometry x="2156.5" y="1568" width="187" height="101" as="geometry" />
        </mxCell>
        <mxCell id="pQPHmSbJhxu7xn3oYJk7-217" style="edgeStyle=orthogonalEdgeStyle;rounded=0;orthogonalLoop=1;jettySize=auto;html=1;fontSize=14;entryX=0.5;entryY=0;entryDx=0;entryDy=0;" edge="1" parent="WIyWlLk6GJQsqaUBKTNV-1" source="pQPHmSbJhxu7xn3oYJk7-193" target="pQPHmSbJhxu7xn3oYJk7-124">
          <mxGeometry relative="1" as="geometry">
            <Array as="points">
              <mxPoint x="729" y="2550" />
              <mxPoint x="729" y="2550" />
            </Array>
          </mxGeometry>
        </mxCell>
        <mxCell id="pQPHmSbJhxu7xn3oYJk7-218" value="Loading服务" style="swimlane;fontSize=14;" vertex="1" parent="WIyWlLk6GJQsqaUBKTNV-1">
          <mxGeometry y="140" width="430" height="2610" as="geometry" />
        </mxCell>
        <UserObject label="&lt;div style=&quot;font-size: 1px&quot;&gt;&lt;p style=&quot;text-align:center;margin-left:0;margin-right:0;margin-top:0px;margin-bottom:0px;text-indent:0;vertical-align:middle;direction:ltr;&quot;&gt;&lt;font style=&quot;font-size:12px;font-family:0;color:#000000;direction:ltr;letter-spacing:0px;line-height:120%;opacity:1&quot;&gt;xxlJob调用&lt;br/&gt;&lt;/font&gt;&lt;font style=&quot;font-size:12px;font-family:0;color:#000000;direction:ltr;letter-spacing:0px;line-height:120%;opacity:1&quot;&gt;流水匹配接口(dealCustomerFlow)&lt;/font&gt;&lt;/p&gt;&lt;/div&gt;" tags="Background" id="pQPHmSbJhxu7xn3oYJk7-219">
          <mxCell style="verticalAlign=middle;align=center;overflow=width;vsdxID=7;fillColor=#FFFFFF;gradientColor=none;shape=stencil(nZBRDoQgDERP03+WHsHFe5iISyOCQdT19kIaIxq//Jtp3zTpAFaTaUYNUkwx+F6v1EYD+AUpyRkdKCYFqACrzgf9C352LfuxyWRWg1/yhT/nRE5IsZWuZtCSK8CPeI0e/hF+jV7AJM4PO7KWCyr390bSiNtEtQM=);strokeColor=#000000;strokeWidth=2;spacingTop=-3;spacingBottom=-3;spacingLeft=-3;spacingRight=-3;points=[];labelBackgroundColor=none;rounded=0;html=1;whiteSpace=wrap;" vertex="1" parent="pQPHmSbJhxu7xn3oYJk7-218">
            <mxGeometry x="130" y="130" width="145" height="58" as="geometry" />
          </mxCell>
        </UserObject>
        <UserObject label="&lt;div style=&quot;font-size: 1px&quot;&gt;&lt;p style=&quot;text-align:center;margin-left:0;margin-right:0;margin-top:0px;margin-bottom:0px;text-indent:0;vertical-align:middle;direction:ltr;&quot;&gt;&lt;font style=&quot;font-size:12px;font-family:0;color:#000000;direction:ltr;letter-spacing:0px;line-height:120%;opacity:1&quot;&gt;开始&lt;/font&gt;&lt;/p&gt;&lt;/div&gt;" tags="Background" id="pQPHmSbJhxu7xn3oYJk7-220">
          <mxCell style="verticalAlign=middle;align=center;overflow=width;vsdxID=9;fillColor=#FFFFFF;gradientColor=none;shape=stencil(hZLbDoIwDIafZpeSrdVk94jvQWTIIjIyDuLbyyzKYBju2u5r+7cdw7gp0lox4E1rzV09ddYWDM8MQFeFsrodLYYJwzg3Vt2s6aqM/Dp1pLMepncVBsoTIjqCywL+ogj/eBeCS115sJTRSf6Hr52l0mKqzTGSYuKFn8AH2EB+sS+EYVtcMpsyw5lW+FroIdQ5i4CQgeUsGLbF3V3uLH405pPluizp4v77+sRjiL4HJm8=);strokeColor=#000000;strokeWidth=2;spacingTop=-3;spacingBottom=-3;spacingLeft=-3;spacingRight=-3;points=[];labelBackgroundColor=none;rounded=0;html=1;whiteSpace=wrap;" vertex="1" parent="pQPHmSbJhxu7xn3oYJk7-218">
            <mxGeometry x="130" y="50" width="146" height="50" as="geometry" />
          </mxCell>
        </UserObject>
        <UserObject label="" tags="Background" id="pQPHmSbJhxu7xn3oYJk7-221">
          <mxCell style="vsdxID=21;edgeStyle=none;startArrow=none;endArrow=block;startSize=5;endSize=5;strokeWidth=2;spacingTop=0;spacingBottom=0;spacingLeft=0;spacingRight=0;verticalAlign=middle;html=1;labelBackgroundColor=#ffffff;rounded=0;exitX=0.5;exitY=1;exitDx=0;exitDy=0;exitPerimeter=0;entryX=0.496551724137931;entryY=0;entryDx=0;entryDy=0;entryPerimeter=0;" edge="1" parent="pQPHmSbJhxu7xn3oYJk7-218" source="pQPHmSbJhxu7xn3oYJk7-220" target="pQPHmSbJhxu7xn3oYJk7-219">
            <mxGeometry relative="1" as="geometry">
              <mxPoint y="116" as="offset" />
              <Array as="points">
                <mxPoint x="203" y="115" />
                <mxPoint x="202.82999999999998" y="115" />
              </Array>
            </mxGeometry>
          </mxCell>
        </UserObject>
        <UserObject label="&lt;div style=&quot;font-size: 1px&quot;&gt;&lt;p style=&quot;text-align:center;margin-left:0;margin-right:0;margin-top:0px;margin-bottom:0px;text-indent:0;vertical-align:middle;direction:ltr;&quot;&gt;&lt;font style=&quot;font-size:12px;font-family:0;color:#000000;direction:ltr;letter-spacing:0px;line-height:120%;opacity:1&quot;&gt;结束&lt;/font&gt;&lt;/p&gt;&lt;/div&gt;" tags="Background" id="pQPHmSbJhxu7xn3oYJk7-222">
          <mxCell style="verticalAlign=middle;align=center;overflow=width;vsdxID=13;fillColor=#FFFFFF;gradientColor=none;shape=stencil(hZLBDoIwDIafZkfJ1mrkjvgeRIYsTkYGKL69zKLAhuHWdl/bv+0YJk2Z1ZIBb1prbvKp8rZkeGIAqiqlVe1gMUwZJoWx8mpNV+Xk15kjnXU3D1ehpzwhov3RZQF/UYR/vDPBWlUzOI6jA/6HL52l0mKszTGKYeTFPIH3sIL8Yl8Iw7a4ZFZlhjN5uC90F+qcREDIwHIWDNvi5i43Fj8Y08kKpTVdfP7un3gI0ffA9A0=);strokeColor=#000000;strokeWidth=2;spacingTop=-3;spacingBottom=-3;spacingLeft=-3;spacingRight=-3;points=[];labelBackgroundColor=none;rounded=0;html=1;whiteSpace=wrap;" vertex="1" parent="pQPHmSbJhxu7xn3oYJk7-218">
            <mxGeometry x="100" y="2540" width="145" height="50" as="geometry" />
          </mxCell>
        </UserObject>
        <mxCell id="pQPHmSbJhxu7xn3oYJk7-223" style="edgeStyle=orthogonalEdgeStyle;rounded=0;orthogonalLoop=1;jettySize=auto;html=1;fontSize=14;" edge="1" parent="WIyWlLk6GJQsqaUBKTNV-1" source="pQPHmSbJhxu7xn3oYJk7-219" target="pQPHmSbJhxu7xn3oYJk7-169">
          <mxGeometry relative="1" as="geometry" />
        </mxCell>
        <mxCell id="pQPHmSbJhxu7xn3oYJk7-224" style="edgeStyle=orthogonalEdgeStyle;rounded=0;orthogonalLoop=1;jettySize=auto;html=1;entryX=0.5;entryY=0;entryDx=0;entryDy=0;entryPerimeter=0;" edge="1" parent="WIyWlLk6GJQsqaUBKTNV-1" source="pQPHmSbJhxu7xn3oYJk7-117" target="pQPHmSbJhxu7xn3oYJk7-126">
          <mxGeometry relative="1" as="geometry" />
        </mxCell>
        <mxCell id="pQPHmSbJhxu7xn3oYJk7-225" style="edgeStyle=orthogonalEdgeStyle;rounded=0;orthogonalLoop=1;jettySize=auto;html=1;exitX=0.5;exitY=1;exitDx=0;exitDy=0;entryX=0.5;entryY=0;entryDx=0;entryDy=0;entryPerimeter=0;" edge="1" parent="WIyWlLk6GJQsqaUBKTNV-1" source="pQPHmSbJhxu7xn3oYJk7-122" target="pQPHmSbJhxu7xn3oYJk7-181">
          <mxGeometry relative="1" as="geometry" />
        </mxCell>
        <mxCell id="pQPHmSbJhxu7xn3oYJk7-226" style="edgeStyle=orthogonalEdgeStyle;rounded=0;orthogonalLoop=1;jettySize=auto;html=1;" edge="1" parent="WIyWlLk6GJQsqaUBKTNV-1" source="pQPHmSbJhxu7xn3oYJk7-123" target="pQPHmSbJhxu7xn3oYJk7-216">
          <mxGeometry relative="1" as="geometry" />
        </mxCell>
        <mxCell id="pQPHmSbJhxu7xn3oYJk7-227" style="edgeStyle=orthogonalEdgeStyle;rounded=0;orthogonalLoop=1;jettySize=auto;html=1;exitX=0.5;exitY=1;exitDx=0;exitDy=0;" edge="1" parent="WIyWlLk6GJQsqaUBKTNV-1" source="pQPHmSbJhxu7xn3oYJk7-124" target="pQPHmSbJhxu7xn3oYJk7-222">
          <mxGeometry relative="1" as="geometry" />
        </mxCell>
      </root>
    </mxGraphModel>
  </diagram>
</mxfile>
